<svg xmlns="http://www.w3.org/2000/svg" viewBox="0 0 239.68 204.61"><defs><style>.cls-1{fill:none;stroke:#f60;stroke-miterlimit:10;stroke-width:1.5px;}.cls-2{fill:#f60;}</style></defs><g id="Слой_2" data-name="Слой 2"><g id="Слой_1-2" data-name="Слой 1"><polygon class="cls-1" points="7.53 79.42 53.23 124.36 97.37 134.1 128.81 168.53 139.02 203.25 159.96 184.36 205.4 167.25 231.96 97.04 227.87 52.87 130.6 5.89 35.36 32.95 7.53 79.42"/><line class="cls-1" x1="35.36" y1="32.96" x2="103.88" y2="75.12"/><line class="cls-1" x1="7.53" y1="79.42" x2="103.88" y2="75.12"/><line class="cls-1" x1="53.23" y1="124.36" x2="101.49" y2="101.13"/><line class="cls-1" x1="97.37" y1="134.1" x2="101.49" y2="101.13"/><line class="cls-1" x1="103.88" y1="75.12" x2="101.49" y2="101.13"/><line class="cls-1" x1="97.37" y1="134.1" x2="162.51" y2="118.66"/><line class="cls-1" x1="159.96" y1="184.36" x2="162.51" y2="118.66"/><line class="cls-1" x1="128.81" y1="168.53" x2="162.51" y2="118.66"/><line class="cls-1" x1="205.4" y1="167.25" x2="163.36" y2="118.66"/><line class="cls-1" x1="130.6" y1="5.89" x2="155.47" y2="70.92"/><line class="cls-1" x1="227.87" y1="52.87" x2="155.47" y2="70.92"/><line class="cls-1" x1="103.88" y1="75.12" x2="155.47" y2="70.92"/><line class="cls-1" x1="231.96" y1="97.04" x2="155.47" y2="70.92"/><line class="cls-1" x1="162.5" y1="119" x2="155.47" y2="70.92"/><circle class="cls-2" cx="35.74" cy="32.64" r="6.64"/><circle class="cls-2" cx="131.19" cy="6.64" r="6.64"/><circle class="cls-2" cx="228.13" cy="52.81" r="6.64"/><circle class="cls-2" cx="162.51" cy="118.66" r="8.09"/><circle class="cls-2" cx="101.49" cy="101.13" r="7.53"/><circle class="cls-2" cx="103.88" cy="75.12" r="7.53"/><circle class="cls-2" cx="6.97" cy="79.99" r="6.97"/><circle class="cls-2" cx="53.52" cy="124.22" r="5.12"/><circle class="cls-2" cx="128.97" cy="168.29" r="5.39"/><circle class="cls-2" cx="159.96" cy="184.2" r="5.39"/><circle class="cls-2" cx="205.41" cy="166.87" r="6.22"/><circle class="cls-2" cx="231.96" cy="96.34" r="7.72"/><circle class="cls-2" cx="155.47" cy="70.92" r="9.85"/></g></g></svg>